{"title":"I Spit On Your Grave 2010.DvDRip.x264.Feel-Free","uid":6115461,"size":1563016798,"categoryP":"video","categoryS":"movies","magnet":"?xt=urn:btih:8301149d82588991bf02830ed11512e4ab158884&amp;dn=+I+Spit+On+Your+Grave+2010.DvDRip.x264.Feel-Free&amp;tr=udp%3A%2F%2Ftracker.openbittorrent.com%3A80&amp;tr=udp%3A%2F%2Fopen.demonii.com%3A1337&amp;tr=udp%3A%2F%2Ftracker.coppersurfer.tk%3A6969&amp;tr=udp%3A%2F%2Fexodus.desync.com%3A6969","seeders":1,"leechers":0,"uploader":"neon","files":-1,"time":1295533214,"description":"Genre:Crime | Thriller\nLanguage:English\n &lt;a href=&quot; http://www.imdb.com/title/tt1242432/&quot; rel=&quot;nofollow&quot; target=&quot;_NEW&quot;&gt; http://www.imdb.com/title/tt1242432/&lt;/a&gt;\nSource:DVD\n\n\nFormat : Matroska\nFile size : 1.45 GiB\nDuration : 1h 48mn\nOverall bit rate : 1 923 Kbps\n\n\nVideo\nFormat settings, CABAC : Yes\nFormat settings, ReFrames : 4 frames\nFormat settings, GOP : M=4, N=32\nCodec ID : V_MPEG4/ISO/AVC\nDuration : 1h 48mn\nBit rate : 1 500 Kbps\nWidth : 720 pixels\nHeight : 304 pixels\nDisplay aspect ratio : 2.35:1\nFrame rate mode : Variable\nFrame rate : 23.976 fps\nColor space : YUV\nChroma subsampling : 4:2:0\nBit depth : 8 bits\nScan type : Progressive\nBits/(Pixel*Frame) : 0.286\nStream size : 1.09 GiB (75%)\nWriting library : x264\n\n\nAudio\nID : 2\nFormat : AC-3\nFormat/Info : Audio Coding 3\nMode extension : CM (complete main)\nCodec ID : A_AC3\nDuration : 1h 48mn\nBit rate mode : Constant\nBit rate : 448 Kbps\nChannel(s) : 6 channels\nChannel positions : Front: L C R, Side: L R, LFE\nSampling rate : 48.0 KHz\nBit depth : 16 bits\nVideo delay : -1mn 5s\nStream size : 347 MiB (23%)\nLanguage : English\n\n\n\nPlot:\nA writer who is brutalized during her cabin retreat seeks revenge on her attackers, who left her for dead\n","torrent":{"xt":"urn:btih:8301149d82588991bf02830ed11512e4ab158884","amp;dn":"+I+Spit+On+Your+Grave+2010.DvDRip.x264.Feel-Free","amp;tr":["udp%3A%2F%2Ftracker.openbittorrent.com%3A80","udp%3A%2F%2Fopen.demonii.com%3A1337","udp%3A%2F%2Ftracker.coppersurfer.tk%3A6969","udp%3A%2F%2Fexodus.desync.com%3A6969"],"infoHash":"8301149d82588991bf02830ed11512e4ab158884","infoHashBuffer":{"type":"Buffer","data":[131,1,20,157,130,88,137,145,191,2,131,14,209,21,18,228,171,21,136,132]},"announce":[],"urlList":[]}}